<svg xmlns="http://www.w3.org/2000/svg" width="44" height="44" viewBox="0 0 44 44"><g><g><path fill="#0bf" d="M22 43.99c-.3 0-.597-.07-.865-.206l-20.06-10.03a1.94 1.94 0 1 1 1.74-3.468L22 39.855l19.185-9.588a1.94 1.94 0 1 1 1.74 3.468l-20.06 10.049a1.93 1.93 0 0 1-.865.207zm0-10.029c-.3 0-.597-.071-.865-.207l-20.06-10.02a1.94 1.94 0 1 1 1.74-3.469L22 29.853l19.185-9.597a1.94 1.94 0 1 1 1.74 3.469l-20.06 10.03a1.93 1.93 0 0 1-.865.206zm0-10.03c-.3 0-.597-.071-.865-.206l-20.06-10.02a1.936 1.936 0 0 1 0-3.47L21.136.206a1.94 1.94 0 0 1 1.74 0l20.05 10.03a1.936 1.936 0 0 1 0 3.47l-20.06 10.029a1.94 1.94 0 0 1-.865.197zM6.283 11.965L22 19.824l15.717-7.859L22 4.135z"/></g></g></svg>