<svg xmlns="http://www.w3.org/2000/svg" width="44" height="44" viewBox="0 0 44 44"><g><g><path fill="#0bf" d="M24.2 38.225a2.478 2.478 0 0 0-2.475-2.475 2.478 2.478 0 0 0-2.475 2.475 2.478 2.478 0 0 0 2.475 2.475 2.478 2.478 0 0 0 2.475-2.475zm16.5 0a2.478 2.478 0 0 0-2.475-2.475 2.478 2.478 0 0 0-2.475 2.475 2.478 2.478 0 0 0 2.475 2.475 2.478 2.478 0 0 0 2.475-2.475zm-29.15 0A5.781 5.781 0 0 1 5.775 44 5.781 5.781 0 0 1 0 38.225a5.781 5.781 0 0 1 5.775-5.775 5.781 5.781 0 0 1 5.775 5.775zm-3.3 0a2.478 2.478 0 0 0-2.475-2.475A2.478 2.478 0 0 0 3.3 38.225 2.478 2.478 0 0 0 5.775 40.7a2.478 2.478 0 0 0 2.475-2.475zm15.95-16.5a2.478 2.478 0 0 0-2.475-2.475 2.478 2.478 0 0 0-2.475 2.475 2.478 2.478 0 0 0 2.475 2.475 2.478 2.478 0 0 0 2.475-2.475zm16.5 0a2.478 2.478 0 0 0-2.475-2.475 2.478 2.478 0 0 0-2.475 2.475 2.478 2.478 0 0 0 2.475 2.475 2.478 2.478 0 0 0 2.475-2.475zm-32.45 0a2.478 2.478 0 0 0-2.475-2.475A2.478 2.478 0 0 0 3.3 21.725 2.478 2.478 0 0 0 5.775 24.2a2.478 2.478 0 0 0 2.475-2.475zM27.5 5.775c0 .894-.204 1.74-.568 2.497l8.407 8.452a5.74 5.74 0 0 1 2.886-.774A5.781 5.781 0 0 1 44 21.725c0 2.51-1.61 4.65-3.85 5.445v5.61A5.785 5.785 0 0 1 44 38.225 5.781 5.781 0 0 1 38.225 44a5.781 5.781 0 0 1-5.775-5.775 5.785 5.785 0 0 1 4.4-5.61v-5.28a5.785 5.785 0 0 1-4.4-5.61c0-.936.224-1.82.62-2.602l-8.36-8.406a5.74 5.74 0 0 1-2.985.833 5.781 5.781 0 0 1-5.775-5.775A5.781 5.781 0 0 1 21.725 0 5.781 5.781 0 0 1 27.5 5.775zm-3.3 0A2.478 2.478 0 0 0 21.725 3.3a2.478 2.478 0 0 0-2.475 2.475 2.478 2.478 0 0 0 2.475 2.475A2.478 2.478 0 0 0 24.2 5.775zm19.8 0a5.781 5.781 0 0 1-5.775 5.775 5.781 5.781 0 0 1-5.775-5.775A5.781 5.781 0 0 1 38.225 0 5.781 5.781 0 0 1 44 5.775zm-3.3 0A2.478 2.478 0 0 0 38.225 3.3a2.478 2.478 0 0 0-2.475 2.475 2.478 2.478 0 0 0 2.475 2.475A2.478 2.478 0 0 0 40.7 5.775zm-29.15 0a5.785 5.785 0 0 1-4.4 5.61v4.73a5.785 5.785 0 0 1 4.4 5.61c0 1.572-.632 3-1.654 4.042l8.073 8.074a5.764 5.764 0 0 1 2.381-1.226v-5.28a5.785 5.785 0 0 1-4.4-5.61 5.781 5.781 0 0 1 5.775-5.775 5.781 5.781 0 0 1 5.775 5.775c0 2.51-1.61 4.65-3.85 5.445v5.61a5.785 5.785 0 0 1 3.85 5.445A5.781 5.781 0 0 1 21.725 44a5.781 5.781 0 0 1-5.569-7.306L6.86 27.398A5.781 5.781 0 0 1 0 21.725c0-2.51 1.61-4.65 3.85-5.445v-5.06A5.785 5.785 0 0 1 0 5.775 5.781 5.781 0 0 1 5.775 0a5.781 5.781 0 0 1 5.775 5.775zm-3.3 0A2.478 2.478 0 0 0 5.775 3.3 2.478 2.478 0 0 0 3.3 5.775 2.478 2.478 0 0 0 5.775 8.25 2.478 2.478 0 0 0 8.25 5.775z"/></g></g></svg>