<svg xmlns="http://www.w3.org/2000/svg" width="36" height="50" viewBox="0 0 36 50"><g><g><path fill="#0bf" d="M17.986 38.145c-.973 0-1.716-.752-1.716-1.736v-4.628c0-.984.743-1.736 1.716-1.736s1.717.753 1.717 1.736v4.628c0 .984-.744 1.736-1.717 1.736zM4.253 42.08l13.733 4.108 13.733-4.108V21.946H4.253zM5.97 12.515C5.97 5.746 11.349.25 17.986.25c6.638 0 12.016 5.496 12.016 12.265v5.96h3.434c.972 0 1.716.752 1.716 1.735v23.142a1.81 1.81 0 0 1-1.201 1.678L18.5 49.658c-.172.058-.343.058-.515.058s-.343 0-.515-.058L2.021 45.03C1.279 44.798.82 44.162.82 43.352V20.21c0-.984.744-1.736 1.717-1.736H5.97zm20.6 0c0-4.86-3.835-8.794-8.584-8.794-4.75 0-8.583 3.935-8.583 8.794v5.96H26.57z"/></g></g></svg>