<?xml version="1.0" encoding="UTF-8"?>
<svg width="55px" height="55px" viewBox="0 0 55 55" version="1.1" xmlns="http://www.w3.org/2000/svg" xmlns:xlink="http://www.w3.org/1999/xlink">
    <!-- Generator: Sketch 59.1 (86144) - https://sketch.com -->
    <title>arbitrage</title>
    <desc>Created with Sketch.</desc>
    <g id="00_screens" stroke="none" stroke-width="1" fill="none" fill-rule="evenodd">
        <g id="00_desktop" transform="translate(-899.000000, -1589.000000)" fill="#00BBFF" fill-rule="nonzero">
            <g id="Group-14" transform="translate(0.000000, 1084.000000)">
                <g id="Group-13" transform="translate(735.000000, 72.000000)">
                    <g id="Group-Copy-3" transform="translate(0.000000, 398.000000)">
                        <g id="arbitrage" transform="translate(164.000000, 34.000000)">
                            <g id="Group" transform="translate(0.000000, 0.637820)">
                                <path d="M31.7234857,0.367059494 C31.3901243,0.399559501 31.0727374,0.572897039 30.8649649,0.835928345 L23.9967965,9.58820524 C23.7046683,9.95369282 23.643732,10.4894617 23.8463096,10.9113493 C24.0488859,11.3332369 24.5048616,11.6201807 24.9723886,11.6199869 L28.094283,11.6199869 L28.094283,23.498077 C28.0942699,24.1592896 28.7022481,24.758671 29.3625533,24.7485323 C31.0094868,24.7317148 32.6704452,24.7452773 34.3380725,24.7485323 C34.9919026,24.7485323 35.5867646,24.1527271 35.5868302,23.498077 L35.5868302,11.6199869 L38.7087253,11.6199869 C39.1762516,11.6201807 39.632228,11.3332369 39.8348043,10.9113493 C40.0373818,10.4894617 39.9764456,9.95369282 39.6843174,9.58820524 L32.816149,0.835928345 C32.559729,0.511778275 32.1347614,0.329421986 31.7234857,0.367059494 Z M14.2408756,2.86768939 C13.6270067,2.92564755 13.1065304,3.50067892 13.1091891,4.11803531 L13.1091891,15.9961254 L9.98729471,15.9961254 C9.52645274,16.0017504 9.07976889,16.2852879 8.87850447,16.700413 C8.67724005,17.1155381 8.73090006,17.642457 9.01170262,18.0083696 L15.8798704,26.7606277 C16.3458905,27.3445028 17.3650344,27.3445028 17.8310545,26.7606277 L24.6992229,18.0083696 C24.9800255,17.642457 25.0336855,17.1155381 24.832421,16.700413 C24.631156,16.2852879 24.1844722,16.0015629 23.7236308,15.9961254 L20.6017364,15.9961254 L20.6017364,4.11803531 C20.6016708,3.46338516 20.0068088,2.86768939 19.3529786,2.86768939 C17.5620895,2.86708503 15.786806,2.88096004 14.2408756,2.86768939 L14.2408756,2.86768939 Z M31.8405569,3.6296227 L36.1526741,9.11933639 L34.3380725,9.11933639 C33.6842423,9.11939889 33.0893803,9.71501152 33.0893147,10.3696617 L33.0893147,22.2477517 C32.2599745,22.2446267 31.4262756,22.2458767 30.5917992,22.2477517 L30.5917992,10.3696617 C30.5917335,9.71501152 29.9968715,9.11939889 29.3430414,9.11933639 L27.5284398,9.11933639 L31.8405569,3.6296227 Z M15.6067047,5.36836058 C16.4411817,5.37023558 17.2748807,5.37148558 18.1042202,5.36836058 L18.1042202,17.2464506 C18.1042858,17.9011008 18.6991478,18.4967134 19.3529786,18.4967759 L21.1480677,18.4967759 L16.8554624,23.9669521 L12.5628578,18.4967759 L14.3579469,18.4967759 C15.011777,18.4967134 15.6066391,17.9011008 15.6067047,17.2464506 L15.6067047,5.36836058 Z M3.74350523,27.2488945 C2.58122373,27.2488945 1.52767157,27.7676904 0.914288122,28.5580031 C0.300904614,29.3481908 0.0754260654,30.3038785 0.0167433652,31.2344412 C-0.0984582222,33.0613791 0.377118756,34.9266295 1.55817889,36.1771297 C1.57759327,36.1996297 1.59721077,36.2327548 1.61671452,36.2553173 C4.24376109,39.3022554 7.67024496,42.8942562 10.9628863,45.7695068 C12.6214298,47.2178196 14.2454726,48.4714449 15.743288,49.4032576 C17.2411027,50.3350703 18.5781623,51.0052579 19.9773576,51.0052579 L35.4892716,51.0052579 C37.5088214,51.307133 38.6028623,51.8860081 39.60627,52.6267583 C40.625574,53.3791335 41.5836879,54.3916337 43.1184014,55.2250714 C43.6956265,55.5370714 44.5043317,55.2950714 44.8159311,54.7171338 C45.1275306,54.1391961 44.8858486,53.329446 44.3086235,53.0175084 C43.1484389,52.3873832 42.3186443,51.5221331 41.0891697,50.6145079 C39.859695,49.7068827 38.2245028,48.8560075 35.7624373,48.5045699 C30.5171249,48.5040699 25.235245,48.5045699 19.9773576,48.5045699 C19.5034156,48.5045699 18.3691185,48.1136323 17.0505814,47.2933196 C15.7320442,46.4730695 14.1951264,45.2656942 12.601881,43.8745064 C9.41539096,41.0918808 6.0150121,37.5353175 3.4508278,34.5556294 C3.43197154,34.5356294 3.41244029,34.5156294 3.39229028,34.4968794 C3.00287207,34.1015043 2.42123851,32.5563165 2.49474553,31.3906287 C2.53149616,30.8078161 2.69715326,30.3432535 2.88498205,30.1012534 C3.0089827,29.9415034 3.24454838,29.9201909 3.45082592,29.8668159 C5.87815895,32.0741914 12.2758303,37.276505 14.7872059,39.4396304 C14.8689646,39.516568 14.961119,39.5825055 15.0603716,39.634943 C15.1665585,40.3348181 15.4134366,41.0104433 15.762798,41.5885684 C16.8501188,43.0921937 18.5624998,44.134694 19.9773557,44.128319 L29.9674185,44.128319 C30.6271524,44.137694 31.2339613,43.5386313 31.2339613,42.8780062 C31.2339613,42.217381 30.6271524,41.6183184 29.9674185,41.6276934 C26.6021472,41.6276934 23.2167764,41.6276934 19.8602845,41.6276934 C19.3127894,41.6764434 18.4025254,41.1481308 17.8895884,40.2991931 C17.4907902,39.639193 17.4608415,39.0241929 17.6554465,38.5018802 L39.9574813,38.5018802 C42.5898044,38.5018802 44.6278923,39.798068 46.6695546,41.6471934 C48.711217,43.4964438 50.6291143,45.8457568 52.932856,47.6058197 C53.4415924,48.0678198 54.3405319,47.9881948 54.7603426,47.4438822 C55.1801527,46.8996321 55.0298471,46.0086319 54.4547795,45.6326318 C52.4984865,44.1381315 50.5842399,41.8170685 48.3475731,39.7912555 C46.1109058,37.7657551 43.4244739,36.0011922 39.9574813,36.0011922 C32.2206178,36.0011922 24.4668461,36.0011922 16.73839,36.0011922 C16.4174562,36.0286922 16.1095955,36.1866297 15.8993805,36.4310048 C15.790773,36.5582548 15.6941598,36.7071299 15.6067029,36.8412549 C12.4910185,34.2040668 6.23393465,29.1219407 4.60202429,27.5810654 C4.37129049,27.3675028 4.05768668,27.2461903 3.74350348,27.2488945 L3.74350523,27.2488945 Z" id="Shape"></path>
                            </g>
                        </g>
                    </g>
                </g>
            </g>
        </g>
    </g>
</svg>