<svg xmlns="http://www.w3.org/2000/svg" width="44" height="44" viewBox="0 0 44 44"><g><g><path fill="#0bf" d="M43.9 27.216l-2.19 5.675a1.5 1.5 0 0 1-1.437.955l-2.58-.076a18.243 18.243 0 0 1-3.195 3.352l.19 2.588a1.493 1.493 0 0 1-.89 1.477l-5.575 2.439a1.491 1.491 0 0 1-1.676-.335l-1.796-1.873c-1.522.216-3.07.256-4.62.118l-1.679 1.946a1.493 1.493 0 0 1-1.668.419l-5.674-2.19a1.493 1.493 0 0 1-.955-1.437l.076-2.58a18.27 18.27 0 0 1-3.353-3.196l-2.587.191a1.498 1.498 0 0 1-1.478-.891l-2.44-5.575a1.493 1.493 0 0 1 .335-1.675l1.873-1.797a20.177 20.177 0 0 1-.118-4.62L.518 18.452A1.494 1.494 0 0 1 .1 16.784l2.19-5.674c.228-.59.793-.979 1.437-.955l2.58.076a18.27 18.27 0 0 1 3.195-3.352l-.19-2.588a1.494 1.494 0 0 1 .89-1.478L15.778.374a1.494 1.494 0 0 1 1.677.335l1.796 1.873a20.153 20.153 0 0 1 4.62-.119L25.549.518A1.492 1.492 0 0 1 27.217.1l5.674 2.19c.591.228.973.804.955 1.437l-.076 2.58a18.243 18.243 0 0 1 3.353 3.195l2.587-.19c.626-.05 1.223.31 1.477.89l2.439 5.575a1.493 1.493 0 0 1-.334 1.676l-1.873 1.797c.216 1.52.255 3.069.118 4.62l1.945 1.678c.478.412.645 1.08.418 1.668zm-3.165-.093l-1.742-1.503a1.493 1.493 0 0 1-.506-1.32 17.22 17.22 0 0 0-.136-5.314c-.091-.494.072-1 .435-1.348l1.687-1.618-1.598-3.651-2.331.17a1.48 1.48 0 0 1-1.309-.598 15.311 15.311 0 0 0-3.81-3.63 1.494 1.494 0 0 1-.664-1.286l.068-2.328-3.707-1.431-1.503 1.742c-.326.378-.82.57-1.32.505a17.22 17.22 0 0 0-5.314.137c-.494.092-1-.073-1.348-.435L16.02 3.528l-3.651 1.597.171 2.331a1.492 1.492 0 0 1-.6 1.309 15.301 15.301 0 0 0-3.629 3.81 1.49 1.49 0 0 1-1.286.664l-2.328-.069-1.43 3.708 1.741 1.503c.38.328.57.824.506 1.32a17.237 17.237 0 0 0 .136 5.314c.091.494-.072 1-.435 1.348l-1.687 1.618 1.598 3.652 2.331-.172a1.497 1.497 0 0 1 1.309.6 15.318 15.318 0 0 0 3.81 3.63c.428.284.68.771.664 1.285l-.068 2.329 3.707 1.43 1.503-1.742c.327-.38.825-.57 1.32-.506 1.79.23 3.577.184 5.313-.136.496-.091 1 .073 1.349.435l1.618 1.687 3.652-1.598-.172-2.33a1.493 1.493 0 0 1 .6-1.31 15.319 15.319 0 0 0 3.629-3.81 1.485 1.485 0 0 1 1.286-.664l2.328.069zm-8.034-5.122c0 5.9-4.8 10.701-10.701 10.701-5.9 0-10.701-4.8-10.701-10.701 0-5.9 4.8-10.702 10.701-10.702 5.9 0 10.701 4.801 10.701 10.702zm-2.986 0c0-4.254-3.46-7.715-7.715-7.715-4.254 0-7.715 3.46-7.715 7.715 0 4.254 3.46 7.715 7.715 7.715 4.254 0 7.715-3.461 7.715-7.715z"/></g></g></svg>