<?xml version="1.0" encoding="UTF-8"?>
<svg width="63px" height="63px" viewBox="0 0 63 63" version="1.1" xmlns="http://www.w3.org/2000/svg" xmlns:xlink="http://www.w3.org/1999/xlink">
    <!-- Generator: Sketch 59.1 (86144) - https://sketch.com -->
    <title>Shape</title>
    <desc>Created with Sketch.</desc>
    <g id="Page-1" stroke="none" stroke-width="1" fill="none" fill-rule="evenodd">
        <g id="OrionElrondAnn3" transform="translate(-897.000000, -307.000000)" fill="#051424">
            <g id="Group-5" transform="translate(184.000000, 273.000000)">
                <g id="svgexport-0" transform="translate(576.000000, 12.000000)">
                    <path d="M149.503858,34.5287207 C149.717584,34.3059361 149.838122,34.0100999 149.840877,33.701587 C149.842036,33.2312501 149.559569,32.8064587 149.12503,32.6250572 C148.690491,32.4436557 148.18933,32.5413155 147.854959,32.872552 C147.511066,33.2022401 147.403821,33.7083002 147.584482,34.1488518 C147.765144,34.5894033 148.197023,34.8749785 148.673696,34.8690814 C148.978343,34.8690814 149.281085,34.7511911 149.501954,34.5287207 L149.503858,34.5287207 Z M152.809273,37.8315508 C153.023651,37.6082668 153.144836,37.3118339 153.148192,37.0025158 C153.146687,36.6933883 153.025196,36.3968896 152.809273,36.1753821 C152.349975,35.7212818 151.610152,35.7212818 151.150853,36.1753821 C150.93493,36.3968896 150.813439,36.6933883 150.811934,37.0025158 C150.811934,37.2953401 150.926177,37.5976717 151.150853,37.8315508 C151.372551,38.0473508 151.669524,38.168706 151.979111,38.1700101 C152.283758,38.1700101 152.575076,38.0540213 152.809273,37.8315508 L152.809273,37.8315508 Z M156.114687,41.1210708 C156.430345,40.8297694 156.560492,40.3889907 156.453598,39.9732619 C156.346704,39.5575331 156.020007,39.2339018 155.602865,39.1305106 C155.185722,39.0271194 154.745409,39.160643 154.456268,39.4782123 C154.035196,39.9406841 154.053561,40.6522963 154.497928,41.092494 C154.942296,41.5326917 155.655,41.545289 156.114687,41.1210708 L156.114687,41.1210708 Z M159.422006,44.423901 C159.871265,43.9674329 159.871265,43.2356091 159.422006,42.779141 C159.130667,42.4697691 158.694083,42.3427865 158.281962,42.4475537 C157.869841,42.5523209 157.547193,42.8723114 157.439437,43.2831391 C157.331681,43.6939668 157.455815,44.1308258 157.763587,44.423901 C157.982344,44.6441367 158.28124,44.7662777 158.591844,44.7623603 C158.902694,44.764637 159.201569,44.6427847 159.422006,44.423901 L159.422006,44.423901 Z M162.715996,47.7248297 C162.940002,47.5097324 163.066597,47.2127868 163.066597,46.9024497 C163.066597,46.5921126 162.940002,46.295167 162.715996,46.0800697 C162.500607,45.8563684 162.203258,45.7299451 161.892499,45.7299451 C161.58174,45.7299451 161.284391,45.8563684 161.069001,46.0800697 C160.848238,46.294467 160.72565,46.5902051 160.730082,46.8976961 C160.730082,47.2019291 160.836708,47.5042607 161.069001,47.7248297 C161.286816,47.9476341 161.587438,48.0701985 161.899163,48.063289 C162.207072,48.0677148 162.503212,47.945293 162.7179,47.7248297 L162.715996,47.7248297 Z M166.373658,50.1986248 C166.370525,49.8875941 166.244627,49.5903599 166.023315,49.3714911 C165.69055,49.0365614 165.18779,48.936303 164.751738,49.1179187 C164.315686,49.2995343 164.033249,49.7268277 164.0374,50.1986248 C164.0374,50.5028578 164.142123,50.7937807 164.37632,51.0276599 C164.712962,51.3573624 165.21438,51.4541187 165.649785,51.273395 C166.085191,51.0926714 166.37021,50.6694887 166.373658,50.1986248 L166.373658,50.1986248 Z M169.328729,54.33049 C169.550036,54.1109845 169.672389,53.8110081 169.667649,53.4995535 C169.667649,52.8589647 169.147643,52.3396649 168.506184,52.3396649 C167.864725,52.3396649 167.344719,52.8589647 167.344719,53.4995535 C167.344719,53.8037865 167.449441,54.0947094 167.681734,54.3285886 C168.137555,54.780322 168.872909,54.780322 169.328729,54.3285886 L169.328729,54.33049 Z M172.636048,57.6181085 C173.089656,57.1626844 173.089656,56.4268713 172.636048,55.9714471 C172.417804,55.7530363 172.121522,55.6302954 171.81255,55.6302954 C171.503578,55.6302954 171.207297,55.7530363 170.989053,55.9714471 C170.764617,56.1891336 170.637616,56.4880376 170.636805,56.8004822 C170.636805,57.0914051 170.754856,57.3956381 170.989053,57.6181085 C171.201984,57.841347 171.497162,57.9677784 171.805886,57.9679766 C172.110533,57.9679766 172.401851,57.8500863 172.636048,57.6162071 L172.636048,57.6181085 Z M175.941463,60.9190373 C176.394104,60.4627174 176.391782,59.7267094 175.93627,59.2732468 C175.480759,58.8197841 174.743747,58.8197841 174.288235,59.2732468 C173.832724,59.7267094 173.830402,60.4627174 174.283043,60.9190373 C174.500951,61.1424097 174.79998,61.2683948 175.112253,61.2683948 C175.424526,61.2683948 175.723555,61.1424097 175.941463,60.9190373 L175.941463,60.9190373 Z M179.248781,64.219966 C179.703216,63.7656249 179.703216,63.0295471 179.248781,62.575206 C178.789259,62.1198493 178.04798,62.1198493 177.588458,62.575206 C177.13611,63.0304079 177.13611,63.7647641 177.588458,64.219966 C177.807232,64.4415641 178.107036,64.5644821 178.418619,64.5603267 C178.723266,64.5603267 179.014584,64.4557466 179.248781,64.219966 L179.248781,64.219966 Z M182.542772,67.5227961 C182.768547,67.3061859 182.895228,67.0064136 182.893115,66.693761 C182.890188,66.3826875 182.764258,66.0853782 182.542772,65.8666274 C182.083234,65.4239971 181.355314,65.4239971 180.895776,65.8666274 C180.43898,66.3244465 180.43898,67.064977 180.895776,67.5227961 C181.115119,67.7433239 181.414718,67.8654712 181.725938,67.8612554 C182.03376,67.865231 182.329729,67.7428799 182.544676,67.5227961 L182.542772,67.5227961 Z M185.85009,70.8256263 C186.075676,70.6088865 186.202322,70.3091992 186.200454,69.9965912 C186.198216,69.6848142 186.072216,69.3866539 185.85009,69.1675561 C185.390712,68.7227082 184.660569,68.7227082 184.201191,69.1675561 C183.98201,69.3876938 183.859992,69.6861633 183.862272,69.9965912 C183.862272,70.3008243 183.968898,70.6031559 184.201191,70.8256263 C184.658509,71.2755231 185.392772,71.2755231 185.85009,70.8256263 L185.85009,70.8256263 Z M189.155505,74.126555 C189.37604,73.9080948 189.498347,73.609604 189.494424,73.2994214 C189.499361,72.8272772 189.21721,72.399268 188.78098,72.2171601 C188.344749,72.0350522 187.841516,72.1351973 187.50851,72.4703863 C187.285318,72.6882594 187.159499,72.9867849 187.159499,73.2984707 C187.159499,73.6101564 187.285318,73.9086819 187.50851,74.126555 C187.965179,74.5762268 188.698836,74.5762268 189.155505,74.126555 L189.155505,74.126555 Z M157.361834,35.4224053 L150.265474,28.3356764 C155.749112,24.1201471 161.807769,22.0076288 168.445255,22.0000114 C175.046563,21.9943186 181.109029,24.1125413 186.636459,28.3489866 L179.528675,35.4452228 C176.133771,33.243336 172.438028,32.1404911 168.439542,32.148097 C164.387744,32.1576043 160.695809,33.2509418 157.361834,35.4224053 L157.361834,35.4224053 Z M150.368293,64.5679325 L143.277645,71.6470556 C139.088756,66.1651561 136.994311,60.1128196 137.000012,53.4881447 C137.007639,46.8007218 139.094468,40.7483853 143.256701,35.3292339 L150.34354,42.408357 C148.145029,45.6830964 146.977944,49.539846 146.992429,53.4824404 C146.984812,57.4564847 148.115813,61.1491135 150.368293,64.5679325 L150.368293,64.5679325 Z M179.585796,71.6109279 L186.653595,78.6672334 C181.2366,82.8352264 175.202695,84.9458432 168.553785,84.999084 C161.838234,85.0504234 155.735783,82.9436094 150.246434,78.6805436 L157.304713,71.6337454 C160.703425,73.9421137 164.439153,75.0867906 168.5138,75.0582688 C172.521806,75.0316484 176.211836,73.8793657 179.585796,71.6109279 L179.585796,71.6109279 Z M186.573626,42.404554 L193.673793,35.3140223 C197.938844,40.7959217 200.052329,46.8900902 199.999016,53.5965278 C199.945703,60.2116954 197.82841,66.2317071 193.650945,71.6622672 L186.558393,64.5793413 C188.74804,61.259398 189.871424,57.6276158 189.917121,53.6839948 C189.966626,49.595863 188.84705,45.8366833 186.573626,42.404554 Z M193.940359,73.88507 C196.663932,73.88507 198.871824,76.0899659 198.871824,78.8098427 C198.871824,81.5297195 196.663932,83.7346154 193.940359,83.7346154 C191.216786,83.7346154 189.008894,81.5297195 189.008894,78.8098427 C189.008894,76.0899659 191.216786,73.88507 193.940359,73.88507 L193.940359,73.88507 Z M143.117706,73.8945773 C144.879549,73.8945773 146.507559,74.8332336 147.38848,76.3569636 C148.269402,77.8806936 148.269402,79.7580064 147.38848,81.2817364 C146.507559,82.8054664 144.879549,83.7441227 143.117706,83.7441227 C140.394133,83.7441227 138.186241,81.5392268 138.186241,78.81935 C138.186241,76.0994731 140.394133,73.8945773 143.117706,73.8945773 L143.117706,73.8945773 Z M193.98796,23.095262 C195.749803,23.095262 197.377813,24.0339183 198.258734,25.5576482 C199.139656,27.0813782 199.139656,28.958691 198.258734,30.482421 C197.377813,32.006151 195.749803,32.9448073 193.98796,32.9448073 C191.264387,32.9448073 189.056495,30.7399115 189.056495,28.0200346 C189.056495,25.3001578 191.264387,23.095262 193.98796,23.095262 L193.98796,23.095262 Z M142.993943,23.0077949 C144.755786,23.0077949 146.383796,23.9464513 147.264718,25.4701812 C148.145639,26.9939112 148.145639,28.871224 147.264718,30.394954 C146.383796,31.918684 144.755786,32.8573403 142.993943,32.8573403 C140.27037,32.8573403 138.062478,30.6524445 138.062478,27.9325676 C138.062478,25.2126908 140.27037,23.0077949 142.993943,23.0077949 L142.993943,23.0077949 Z" id="Shape"></path>
                </g>
            </g>
        </g>
    </g>
</svg>