<?xml version="1.0" encoding="UTF-8"?>
<svg width="1440px" height="752px" viewBox="0 0 1440 752" version="1.1" xmlns="http://www.w3.org/2000/svg" xmlns:xlink="http://www.w3.org/1999/xlink">
    <!-- Generator: Sketch 59.1 (86144) - https://sketch.com -->
    <title>Group</title>
    <desc>Created with Sketch.</desc>
    <g id="00_screens" stroke="none" stroke-width="1" fill="none" fill-rule="evenodd">
        <g id="Artboard" fill="#202036">
            <g id="Group" transform="translate(0.000000, -1.408690)">
                <rect id="Rectangle" x="0" y="283.69005" width="1440" height="274.00025"></rect>
                <path d="M0,587.690327 L40,614.390352 C80,640.690376 160,694.690425 240,704.990434 C320,715.690444 400,683.690415 480,678.39041 C560,672.690405 640,694.690425 720,688.99042 C800,683.690415 880,651.690386 960,667.6904 C1040,683.690415 1120,747.690473 1200,752.990478 C1280,758.690484 1360,704.690434 1400,678.39041 L1440,651.690386 L1440,555.690298 L1400,555.690298 C1360,555.690298 1280,555.690298 1200,555.690298 C1120,555.690298 1040,555.690298 960,555.690298 C880,555.690298 800,555.690298 720,555.690298 C640,555.690298 560,555.690298 480,555.690298 C400,555.690298 320,555.690298 240,555.690298 C160,555.690298 80,555.690298 40,555.690298 L0,555.690298 L0,587.690327 Z" id="Path" transform="translate(720.000000, 654.549494) scale(-1, 1) translate(-720.000000, -654.549494) "></path>
                <path d="M0,224.000205 L48,218.7002 C96,213.000195 192,203.000186 288,218.7002 C384,235.000215 480,277.000253 576,282.700258 C672,288.000263 765.950745,283.660675 876.227173,258.071908 C986.503601,232.483142 1055.26738,218.7002 1152,197.853848 C1248,181.553833 1312.21343,193.176738 1361.38573,204.611719 L1440,224.000205 L1440,-5.68434189e-14 L1392,-5.68434189e-14 C1344,-5.68434189e-14 1248,-5.68434189e-14 1152,-5.68434189e-14 C1056,-5.68434189e-14 960,-5.68434189e-14 864,-5.68434189e-14 C768,-5.68434189e-14 672,-5.68434189e-14 576,-5.68434189e-14 C480,-5.68434189e-14 384,-5.68434189e-14 288,-5.68434189e-14 C192,-5.68434189e-14 96,-5.68434189e-14 48,-5.68434189e-14 L0,-5.68434189e-14 L0,224.000205 Z" id="Path" transform="translate(720.000000, 142.345025) scale(1, -1) translate(-720.000000, -142.345025) "></path>
            </g>
        </g>
    </g>
</svg>