<?xml version="1.0" encoding="UTF-8" standalone="no"?>
<svg
   xmlns:dc="http://purl.org/dc/elements/1.1/"
   xmlns:cc="http://creativecommons.org/ns#"
   xmlns:rdf="http://www.w3.org/1999/02/22-rdf-syntax-ns#"
   xmlns:svg="http://www.w3.org/2000/svg"
   xmlns="http://www.w3.org/2000/svg"
   xmlns:sodipodi="http://sodipodi.sourceforge.net/DTD/sodipodi-0.dtd"
   xmlns:inkscape="http://www.inkscape.org/namespaces/inkscape"
   width="1920"
   height="1002.6658"
   viewBox="0 0 1440 751.99933"
   version="1.1"
   id="svg8"
   sodipodi:docname="products-bg.svg"
   inkscape:export-filename="/home/busforward/www/orionnew/img/products-bg.svg.png"
   inkscape:export-xdpi="96"
   inkscape:export-ydpi="96"
   inkscape:version="0.92.4 (5da689c313, 2019-01-14)">
  <metadata
     id="metadata14">
    <rdf:RDF>
      <cc:Work
         rdf:about="">
        <dc:format>image/svg+xml</dc:format>
        <dc:type
           rdf:resource="http://purl.org/dc/dcmitype/StillImage" />
        <dc:title></dc:title>
      </cc:Work>
    </rdf:RDF>
  </metadata>
  <defs
     id="defs12" />
  <sodipodi:namedview
     pagecolor="#ffffff"
     bordercolor="#666666"
     borderopacity="1"
     objecttolerance="10"
     gridtolerance="10"
     guidetolerance="10"
     inkscape:pageopacity="0"
     inkscape:pageshadow="2"
     inkscape:window-width="1920"
     inkscape:window-height="1023"
     id="namedview10"
     showgrid="false"
     scale-x="0.75"
     fit-margin-top="0"
     fit-margin-left="0"
     fit-margin-right="0"
     fit-margin-bottom="0"
     inkscape:zoom="0.31180556"
     inkscape:cx="729.62138"
     inkscape:cy="627.12561"
     inkscape:window-x="0"
     inkscape:window-y="27"
     inkscape:window-maximized="1"
     inkscape:current-layer="svg8" />
  <g
     id="g6"
     transform="translate(0,-0.71989822)">
    <g
       id="g4">
      <path
         d="m 1440,587.001 -40,26.7 c -40,26.3 -120,80.3 -200,90.6 -80,10.7 -160,-21.3 -240,-26.6 -80,-5.7 -160,16.3 -240,10.6 -80,-5.3 -160,-37.3 -240,-21.3 -80,16 -160,80 -240,85.3 -80,5.7 -160,-48.3 -200,-74.6 l -40,-26.7 v -591 l 48,5.3 c 48,5.7 144,15.7 240,0 96,-16.3 192,-58.3 288,-64 96,-5.3 192,26.7 288,53.4 96,26.3 192,48.3 288,64 96,16.3 192,26.3 240,32 l 48,5.3 z"
         id="path2"
         inkscape:connector-curvature="0"
         style="fill:#202036" />
    </g>
  </g>
</svg>
