<svg xmlns="http://www.w3.org/2000/svg" width="20" height="20" viewBox="0 0 20 20"><g><g><g><path fill="#f0f0f0" d="M10 20c5.523 0 10-4.477 10-10S15.523 0 10 0 0 4.477 0 10s4.477 10 10 10z"/></g><g><g><path fill="#d80027" d="M9.57 9.999h10.435c0-.903-.12-1.777-.345-2.609H9.57z"/></g><g><path fill="#d80027" d="M9.57 4.779h8.967A10.053 10.053 0 0 0 16.23 2.17H9.57z"/></g><g><path fill="#d80027" d="M10.005 20.004a9.957 9.957 0 0 0 6.225-2.174H3.78a9.957 9.957 0 0 0 6.225 2.174z"/></g><g><path fill="#d80027" d="M1.463 15.219h17.065a9.94 9.94 0 0 0 1.123-2.609H.34a9.94 9.94 0 0 0 1.123 2.609z"/></g></g><g><path fill="#0052b4" d="M8.283 2.171l.324.993-.848-.614-.848.614.324-.993-.848-.613h1.048L7.76.565l.324.993H9.13zm0 2.92l.324.996-.848-.616-.848.616.324-.996-.848-.616h1.048l.324-.997.324.997H9.13zM8.607 9l-.848-.616L6.91 9l.324-.996-.848-.616h1.048l.324-.997.324.997H9.13l-.847.616zM4.696 5.09l.324.997-.848-.616-.848.616.324-.996-.847-.616h1.047l.324-.997.324.997h1.047zM5.02 9l-.848-.616L3.324 9l.324-.996-.847-.616h1.047l.324-.997.324.997h1.047l-.847.616zm-.388-7.438h.911l-.847.615.324.997-.848-.616-.848.616.28-.86c-.746.62-1.4 1.35-1.94 2.16h.293l-.54.393c-.084.14-.165.282-.242.427l.258.793-.481-.35c-.12.254-.229.513-.327.777l.284.874h1.048l-.848.616.324.996-.848-.616-.508.37C.027 9.161 0 9.577 0 10h10V0a9.953 9.953 0 0 0-5.368 1.562z"/></g></g></g></svg>